<?xml version="1.0" encoding="utf-8" standalone="no"?>
<!DOCTYPE svg PUBLIC "-//W3C//DTD SVG 1.1//EN"
  "http://www.w3.org/Graphics/SVG/1.1/DTD/svg11.dtd">
<svg xmlns:xlink="http://www.w3.org/1999/xlink" width="924.238235pt" height="337.235057pt" viewBox="0 0 924.238235 337.235057" xmlns="http://www.w3.org/2000/svg" version="1.1">
 <metadata>
  <rdf:RDF xmlns:dc="http://purl.org/dc/elements/1.1/" xmlns:cc="http://creativecommons.org/ns#" xmlns:rdf="http://www.w3.org/1999/02/22-rdf-syntax-ns#">
   <cc:Work>
    <dc:type rdf:resource="http://purl.org/dc/dcmitype/StillImage"/>
    <dc:date>2026-08-17T14:50:42.718012</dc:date>
    <dc:format>image/svg+xml</dc:format>
    <dc:creator>
     <cc:Agent>
      <dc:title>Matplotlib v3.10.9, https://matplotlib.org/</dc:title>
     </cc:Agent>
    </dc:creator>
   </cc:Work>
  </rdf:RDF>
 </metadata>
 <defs>
  <style type="text/css">*{stroke-linejoin: round; stroke-linecap: butt}</style>
 </defs>
 <g id="figure_1">
  <g id="patch_1">
   <path d="M 0 337.235057 
L 924.238235 337.235057 
L 924.238235 0 
L 0 0 
z
" style="fill: #ffffff"/>
  </g>
  <g id="axes_1">
   <g id="patch_2">
    <path d="M 66.829031 297.227645 
L 457.510475 297.227645 
L 457.510475 44.674298 
L 66.829031 44.674298 
z
" style="fill: #ffffff"/>
   </g>
   <g id="matplotlib.axis_1">
    <g id="xtick_1">
     <g id="line2d_1">
      <defs>
       <path id="m932c10dac5" d="M 0 0 
L 0 3.5 
" style="stroke: #000000; stroke-width: 1.1"/>
      </defs>
      <g>
       <use xlink:href="#m932c10dac5" x="84.587278" y="297.227645" style="stroke: #000000; stroke-width: 1.1"/>
      </g>
     </g>
     <g id="text_1">
      <text style="font-size: 11px; font-family: 'Arial', 'Helvetica', 'DejaVu Sans', sans-serif; text-anchor: middle" x="84.587278" y="312.585926" transform="rotate(-0 84.587278 312.585926)">0</text>
     </g>
    </g>
    <g id="xtick_2">
     <g id="line2d_2">
      <g>
       <use xlink:href="#m932c10dac5" x="155.620268" y="297.227645" style="stroke: #000000; stroke-width: 1.1"/>
      </g>
     </g>
     <g id="text_2">
      <text style="font-size: 11px; font-family: 'Arial', 'Helvetica', 'DejaVu Sans', sans-serif; text-anchor: middle" x="155.620268" y="312.585926" transform="rotate(-0 155.620268 312.585926)">1</text>
     </g>
    </g>
    <g id="xtick_3">
     <g id="line2d_3">
      <g>
       <use xlink:href="#m932c10dac5" x="226.653258" y="297.227645" style="stroke: #000000; stroke-width: 1.1"/>
      </g>
     </g>
     <g id="text_3">
      <text style="font-size: 11px; font-family: 'Arial', 'Helvetica', 'DejaVu Sans', sans-serif; text-anchor: middle" x="226.653258" y="312.585926" transform="rotate(-0 226.653258 312.585926)">2</text>
     </g>
    </g>
    <g id="xtick_4">
     <g id="line2d_4">
      <g>
       <use xlink:href="#m932c10dac5" x="297.686248" y="297.227645" style="stroke: #000000; stroke-width: 1.1"/>
      </g>
     </g>
     <g id="text_4">
      <text style="font-size: 11px; font-family: 'Arial', 'Helvetica', 'DejaVu Sans', sans-serif; text-anchor: middle" x="297.686248" y="312.585926" transform="rotate(-0 297.686248 312.585926)">3</text>
     </g>
    </g>
    <g id="xtick_5">
     <g id="line2d_5">
      <g>
       <use xlink:href="#m932c10dac5" x="368.719238" y="297.227645" style="stroke: #000000; stroke-width: 1.1"/>
      </g>
     </g>
     <g id="text_5">
      <text style="font-size: 11px; font-family: 'Arial', 'Helvetica', 'DejaVu Sans', sans-serif; text-anchor: middle" x="368.719238" y="312.585926" transform="rotate(-0 368.719238 312.585926)">4</text>
     </g>
    </g>
    <g id="xtick_6">
     <g id="line2d_6">
      <g>
       <use xlink:href="#m932c10dac5" x="439.752228" y="297.227645" style="stroke: #000000; stroke-width: 1.1"/>
      </g>
     </g>
     <g id="text_6">
      <text style="font-size: 11px; font-family: 'Arial', 'Helvetica', 'DejaVu Sans', sans-serif; text-anchor: middle" x="439.752228" y="312.585926" transform="rotate(-0 439.752228 312.585926)">5</text>
     </g>
    </g>
    <g id="text_7">
     <text style="font-size: 11px; font-family: 'Arial', 'Helvetica', 'DejaVu Sans', sans-serif; text-anchor: middle" x="262.169753" y="327.231864" transform="rotate(-0 262.169753 327.231864)">Absolute-error threshold</text>
    </g>
   </g>
   <g id="matplotlib.axis_2">
    <g id="ytick_1">
     <g id="line2d_7">
      <path d="M 66.829031 297.227645 
L 457.510475 297.227645 
" clip-path="url(#p730922d79d)" style="fill: none; stroke: #d9d9d9; stroke-opacity: 0.85; stroke-width: 0.6; stroke-linecap: square"/>
     </g>
     <g id="line2d_8">
      <defs>
       <path id="mab15fd94c4" d="M 0 0 
L -3.5 0 
" style="stroke: #000000; stroke-width: 1.1"/>
      </defs>
      <g>
       <use xlink:href="#mab15fd94c4" x="66.829031" y="297.227645" style="stroke: #000000; stroke-width: 1.1"/>
      </g>
     </g>
     <g id="text_8">
      <text style="font-size: 11px; font-family: 'Arial', 'Helvetica', 'DejaVu Sans', sans-serif; text-anchor: end" x="59.829031" y="301.406786" transform="rotate(-0 59.829031 301.406786)">0.0</text>
     </g>
    </g>
    <g id="ytick_2">
     <g id="line2d_9">
      <path d="M 66.829031 248.659694 
L 457.510475 248.659694 
" clip-path="url(#p730922d79d)" style="fill: none; stroke: #d9d9d9; stroke-opacity: 0.85; stroke-width: 0.6; stroke-linecap: square"/>
     </g>
     <g id="line2d_10">
      <g>
       <use xlink:href="#mab15fd94c4" x="66.829031" y="248.659694" style="stroke: #000000; stroke-width: 1.1"/>
      </g>
     </g>
     <g id="text_9">
      <text style="font-size: 11px; font-family: 'Arial', 'Helvetica', 'DejaVu Sans', sans-serif; text-anchor: end" x="59.829031" y="252.838834" transform="rotate(-0 59.829031 252.838834)">0.2</text>
     </g>
    </g>
    <g id="ytick_3">
     <g id="line2d_11">
      <path d="M 66.829031 200.091742 
L 457.510475 200.091742 
" clip-path="url(#p730922d79d)" style="fill: none; stroke: #d9d9d9; stroke-opacity: 0.85; stroke-width: 0.6; stroke-linecap: square"/>
     </g>
     <g id="line2d_12">
      <g>
       <use xlink:href="#mab15fd94c4" x="66.829031" y="200.091742" style="stroke: #000000; stroke-width: 1.1"/>
      </g>
     </g>
     <g id="text_10">
      <text style="font-size: 11px; font-family: 'Arial', 'Helvetica', 'DejaVu Sans', sans-serif; text-anchor: end" x="59.829031" y="204.270883" transform="rotate(-0 59.829031 204.270883)">0.4</text>
     </g>
    </g>
    <g id="ytick_4">
     <g id="line2d_13">
      <path d="M 66.829031 151.523791 
L 457.510475 151.523791 
" clip-path="url(#p730922d79d)" style="fill: none; stroke: #d9d9d9; stroke-opacity: 0.85; stroke-width: 0.6; stroke-linecap: square"/>
     </g>
     <g id="line2d_14">
      <g>
       <use xlink:href="#mab15fd94c4" x="66.829031" y="151.523791" style="stroke: #000000; stroke-width: 1.1"/>
      </g>
     </g>
     <g id="text_11">
      <text style="font-size: 11px; font-family: 'Arial', 'Helvetica', 'DejaVu Sans', sans-serif; text-anchor: end" x="59.829031" y="155.702931" transform="rotate(-0 59.829031 155.702931)">0.6</text>
     </g>
    </g>
    <g id="ytick_5">
     <g id="line2d_15">
      <path d="M 66.829031 102.955839 
L 457.510475 102.955839 
" clip-path="url(#p730922d79d)" style="fill: none; stroke: #d9d9d9; stroke-opacity: 0.85; stroke-width: 0.6; stroke-linecap: square"/>
     </g>
     <g id="line2d_16">
      <g>
       <use xlink:href="#mab15fd94c4" x="66.829031" y="102.955839" style="stroke: #000000; stroke-width: 1.1"/>
      </g>
     </g>
     <g id="text_12">
      <text style="font-size: 11px; font-family: 'Arial', 'Helvetica', 'DejaVu Sans', sans-serif; text-anchor: end" x="59.829031" y="107.13498" transform="rotate(-0 59.829031 107.13498)">0.8</text>
     </g>
    </g>
    <g id="ytick_6">
     <g id="line2d_17">
      <path d="M 66.829031 54.387888 
L 457.510475 54.387888 
" clip-path="url(#p730922d79d)" style="fill: none; stroke: #d9d9d9; stroke-opacity: 0.85; stroke-width: 0.6; stroke-linecap: square"/>
     </g>
     <g id="line2d_18">
      <g>
       <use xlink:href="#mab15fd94c4" x="66.829031" y="54.387888" style="stroke: #000000; stroke-width: 1.1"/>
      </g>
     </g>
     <g id="text_13">
      <text style="font-size: 11px; font-family: 'Arial', 'Helvetica', 'DejaVu Sans', sans-serif; text-anchor: end" x="59.829031" y="58.567028" transform="rotate(-0 59.829031 58.567028)">1.0</text>
     </g>
    </g>
    <g id="text_14">
     <text style="font-size: 11px; font-family: 'Arial', 'Helvetica', 'DejaVu Sans', sans-serif; text-anchor: middle" x="36.047937" y="170.950971" transform="rotate(-90 36.047937 170.950971)">Patient coverage</text>
    </g>
   </g>
   <g id="FillBetweenPolyCollection_1">
    <defs>
     <path id="m204d583918" d="M 84.587278 -40.007412 
L 84.587278 -73.502551 
L 102.345526 -73.502551 
L 120.103773 -123.745259 
L 137.862021 -123.745259 
L 155.620268 -165.614183 
L 173.378516 -165.614183 
L 191.136763 -173.987968 
L 208.895011 -173.987968 
L 226.653258 -190.735537 
L 244.411506 -190.735537 
L 262.169753 -224.230676 
L 279.928 -224.230676 
L 297.686248 -224.230676 
L 315.444495 -224.230676 
L 333.202743 -224.230676 
L 350.96099 -224.230676 
L 368.719238 -224.230676 
L 386.477485 -224.230676 
L 404.235733 -232.604461 
L 421.99398 -232.604461 
L 439.752228 -249.35203 
L 439.752228 -40.007412 
L 439.752228 -40.007412 
L 421.99398 -40.007412 
L 404.235733 -40.007412 
L 386.477485 -40.007412 
L 368.719238 -40.007412 
L 350.96099 -40.007412 
L 333.202743 -40.007412 
L 315.444495 -40.007412 
L 297.686248 -40.007412 
L 279.928 -40.007412 
L 262.169753 -40.007412 
L 244.411506 -40.007412 
L 226.653258 -40.007412 
L 208.895011 -40.007412 
L 191.136763 -40.007412 
L 173.378516 -40.007412 
L 155.620268 -40.007412 
L 137.862021 -40.007412 
L 120.103773 -40.007412 
L 102.345526 -40.007412 
L 84.587278 -40.007412 
z
" style="stroke: #3775ba; stroke-opacity: 0.16"/>
    </defs>
    <g clip-path="url(#p730922d79d)">
     <use xlink:href="#m204d583918" x="0" y="337.235057" style="fill: #3775ba; fill-opacity: 0.16; stroke: #3775ba; stroke-opacity: 0.16"/>
    </g>
   </g>
   <g id="line2d_19">
    <path d="M 84.587278 263.732506 
L 102.345526 263.732506 
L 120.103773 213.489798 
L 137.862021 213.489798 
L 155.620268 171.620874 
L 173.378516 171.620874 
L 191.136763 163.247089 
L 208.895011 163.247089 
L 226.653258 146.49952 
L 244.411506 146.49952 
L 262.169753 113.004381 
L 279.928 113.004381 
L 297.686248 113.004381 
L 315.444495 113.004381 
L 333.202743 113.004381 
L 350.96099 113.004381 
L 368.719238 113.004381 
L 386.477485 113.004381 
L 404.235733 104.630596 
L 421.99398 104.630596 
L 439.752228 87.883027 
" clip-path="url(#p730922d79d)" style="fill: none; stroke: #0f4d92; stroke-width: 2.4; stroke-linecap: square"/>
   </g>
   <g id="line2d_20">
    <path d="M 191.136763 297.227645 
L 191.136763 44.674298 
" clip-path="url(#p730922d79d)" style="fill: none; stroke-dasharray: 4.995,2.16; stroke-dashoffset: 0; stroke: #b64342; stroke-width: 1.35"/>
   </g>
   <g id="patch_3">
    <path d="M 66.829031 297.227645 
L 66.829031 44.674298 
" style="fill: none; stroke: #000000; stroke-width: 1.6; stroke-linejoin: miter; stroke-linecap: square"/>
   </g>
   <g id="patch_4">
    <path d="M 66.829031 297.227645 
L 457.510475 297.227645 
" style="fill: none; stroke: #000000; stroke-width: 1.6; stroke-linejoin: miter; stroke-linecap: square"/>
   </g>
   <g id="text_15">
    <text style="font-weight: 700; font-size: 9px; font-family: 'Arial', 'Helvetica', 'DejaVu Sans', sans-serif; text-anchor: start" x="199.136763" y="187.247089" transform="rotate(-0 199.136763 187.247089)">16/29 (55.2%)</text>
   </g>
   <g id="text_16">
    <text style="font-weight: 700; font-size: 15px; font-family: 'Arial', 'Helvetica', 'DejaVu Sans', sans-serif; text-anchor: start" x="4.32" y="35.867686" transform="rotate(-0 4.32 35.867686)">A</text>
   </g>
   <g id="text_17">
    <text style="font-weight: 700; font-size: 12px; font-family: 'Arial', 'Helvetica', 'DejaVu Sans', sans-serif; text-anchor: middle" x="262.169753" y="38.674298" transform="rotate(-0 262.169753 38.674298)">FMA hand score</text>
   </g>
   <g id="PathCollection_1">
    <defs>
     <path id="m21aa983dbd" d="M 0 4.690416 
C 1.243913 4.690416 2.437046 4.196204 3.316625 3.316625 
C 4.196204 2.437046 4.690416 1.243913 4.690416 0 
C 4.690416 -1.243913 4.196204 -2.437046 3.316625 -3.316625 
C 2.437046 -4.196204 1.243913 -4.690416 0 -4.690416 
C -1.243913 -4.690416 -2.437046 -4.196204 -3.316625 -3.316625 
C -4.196204 -2.437046 -4.690416 -1.243913 -4.690416 0 
C -4.690416 1.243913 -4.196204 2.437046 -3.316625 3.316625 
C -2.437046 4.196204 -1.243913 4.690416 0 4.690416 
z
" style="stroke: #000000"/>
    </defs>
    <g clip-path="url(#p730922d79d)">
     <use xlink:href="#m21aa983dbd" x="191.136763" y="163.247089" style="fill: #d89b22; stroke: #000000"/>
    </g>
   </g>
  </g>
  <g id="axes_2">
   <g id="patch_5">
    <path d="M 529.236791 297.227645 
L 919.918235 297.227645 
L 919.918235 44.674298 
L 529.236791 44.674298 
z
" style="fill: #ffffff"/>
   </g>
   <g id="matplotlib.axis_3">
    <g id="xtick_7">
     <g id="line2d_21">
      <g>
       <use xlink:href="#m932c10dac5" x="546.995038" y="297.227645" style="stroke: #000000; stroke-width: 1.1"/>
      </g>
     </g>
     <g id="text_18">
      <text style="font-size: 11px; font-family: 'Arial', 'Helvetica', 'DejaVu Sans', sans-serif; text-anchor: middle" x="546.995038" y="312.585926" transform="rotate(-0 546.995038 312.585926)">0</text>
     </g>
    </g>
    <g id="xtick_8">
     <g id="line2d_22">
      <g>
       <use xlink:href="#m932c10dac5" x="606.189197" y="297.227645" style="stroke: #000000; stroke-width: 1.1"/>
      </g>
     </g>
     <g id="text_19">
      <text style="font-size: 11px; font-family: 'Arial', 'Helvetica', 'DejaVu Sans', sans-serif; text-anchor: middle" x="606.189197" y="312.585926" transform="rotate(-0 606.189197 312.585926)">5</text>
     </g>
    </g>
    <g id="xtick_9">
     <g id="line2d_23">
      <g>
       <use xlink:href="#m932c10dac5" x="665.383355" y="297.227645" style="stroke: #000000; stroke-width: 1.1"/>
      </g>
     </g>
     <g id="text_20">
      <text style="font-size: 11px; font-family: 'Arial', 'Helvetica', 'DejaVu Sans', sans-serif; text-anchor: middle" x="665.383355" y="312.585926" transform="rotate(-0 665.383355 312.585926)">10</text>
     </g>
    </g>
    <g id="xtick_10">
     <g id="line2d_24">
      <g>
       <use xlink:href="#m932c10dac5" x="724.577513" y="297.227645" style="stroke: #000000; stroke-width: 1.1"/>
      </g>
     </g>
     <g id="text_21">
      <text style="font-size: 11px; font-family: 'Arial', 'Helvetica', 'DejaVu Sans', sans-serif; text-anchor: middle" x="724.577513" y="312.585926" transform="rotate(-0 724.577513 312.585926)">15</text>
     </g>
    </g>
    <g id="xtick_11">
     <g id="line2d_25">
      <g>
       <use xlink:href="#m932c10dac5" x="783.771671" y="297.227645" style="stroke: #000000; stroke-width: 1.1"/>
      </g>
     </g>
     <g id="text_22">
      <text style="font-size: 11px; font-family: 'Arial', 'Helvetica', 'DejaVu Sans', sans-serif; text-anchor: middle" x="783.771671" y="312.585926" transform="rotate(-0 783.771671 312.585926)">20</text>
     </g>
    </g>
    <g id="xtick_12">
     <g id="line2d_26">
      <g>
       <use xlink:href="#m932c10dac5" x="842.965829" y="297.227645" style="stroke: #000000; stroke-width: 1.1"/>
      </g>
     </g>
     <g id="text_23">
      <text style="font-size: 11px; font-family: 'Arial', 'Helvetica', 'DejaVu Sans', sans-serif; text-anchor: middle" x="842.965829" y="312.585926" transform="rotate(-0 842.965829 312.585926)">25</text>
     </g>
    </g>
    <g id="xtick_13">
     <g id="line2d_27">
      <g>
       <use xlink:href="#m932c10dac5" x="902.159988" y="297.227645" style="stroke: #000000; stroke-width: 1.1"/>
      </g>
     </g>
     <g id="text_24">
      <text style="font-size: 11px; font-family: 'Arial', 'Helvetica', 'DejaVu Sans', sans-serif; text-anchor: middle" x="902.159988" y="312.585926" transform="rotate(-0 902.159988 312.585926)">30</text>
     </g>
    </g>
    <g id="text_25">
     <text style="font-size: 11px; font-family: 'Arial', 'Helvetica', 'DejaVu Sans', sans-serif; text-anchor: middle" x="724.577513" y="327.231864" transform="rotate(-0 724.577513 327.231864)">Absolute-error threshold</text>
    </g>
   </g>
   <g id="matplotlib.axis_4">
    <g id="ytick_7">
     <g id="line2d_28">
      <path d="M 529.236791 297.227645 
L 919.918235 297.227645 
" clip-path="url(#pf8d6de6603)" style="fill: none; stroke: #d9d9d9; stroke-opacity: 0.85; stroke-width: 0.6; stroke-linecap: square"/>
     </g>
     <g id="line2d_29">
      <g>
       <use xlink:href="#mab15fd94c4" x="529.236791" y="297.227645" style="stroke: #000000; stroke-width: 1.1"/>
      </g>
     </g>
     <g id="text_26">
      <text style="font-size: 11px; font-family: 'Arial', 'Helvetica', 'DejaVu Sans', sans-serif; text-anchor: end" x="522.236791" y="301.406786" transform="rotate(-0 522.236791 301.406786)">0.0</text>
     </g>
    </g>
    <g id="ytick_8">
     <g id="line2d_30">
      <path d="M 529.236791 248.659694 
L 919.918235 248.659694 
" clip-path="url(#pf8d6de6603)" style="fill: none; stroke: #d9d9d9; stroke-opacity: 0.85; stroke-width: 0.6; stroke-linecap: square"/>
     </g>
     <g id="line2d_31">
      <g>
       <use xlink:href="#mab15fd94c4" x="529.236791" y="248.659694" style="stroke: #000000; stroke-width: 1.1"/>
      </g>
     </g>
     <g id="text_27">
      <text style="font-size: 11px; font-family: 'Arial', 'Helvetica', 'DejaVu Sans', sans-serif; text-anchor: end" x="522.236791" y="252.838834" transform="rotate(-0 522.236791 252.838834)">0.2</text>
     </g>
    </g>
    <g id="ytick_9">
     <g id="line2d_32">
      <path d="M 529.236791 200.091742 
L 919.918235 200.091742 
" clip-path="url(#pf8d6de6603)" style="fill: none; stroke: #d9d9d9; stroke-opacity: 0.85; stroke-width: 0.6; stroke-linecap: square"/>
     </g>
     <g id="line2d_33">
      <g>
       <use xlink:href="#mab15fd94c4" x="529.236791" y="200.091742" style="stroke: #000000; stroke-width: 1.1"/>
      </g>
     </g>
     <g id="text_28">
      <text style="font-size: 11px; font-family: 'Arial', 'Helvetica', 'DejaVu Sans', sans-serif; text-anchor: end" x="522.236791" y="204.270883" transform="rotate(-0 522.236791 204.270883)">0.4</text>
     </g>
    </g>
    <g id="ytick_10">
     <g id="line2d_34">
      <path d="M 529.236791 151.523791 
L 919.918235 151.523791 
" clip-path="url(#pf8d6de6603)" style="fill: none; stroke: #d9d9d9; stroke-opacity: 0.85; stroke-width: 0.6; stroke-linecap: square"/>
     </g>
     <g id="line2d_35">
      <g>
       <use xlink:href="#mab15fd94c4" x="529.236791" y="151.523791" style="stroke: #000000; stroke-width: 1.1"/>
      </g>
     </g>
     <g id="text_29">
      <text style="font-size: 11px; font-family: 'Arial', 'Helvetica', 'DejaVu Sans', sans-serif; text-anchor: end" x="522.236791" y="155.702931" transform="rotate(-0 522.236791 155.702931)">0.6</text>
     </g>
    </g>
    <g id="ytick_11">
     <g id="line2d_36">
      <path d="M 529.236791 102.955839 
L 919.918235 102.955839 
" clip-path="url(#pf8d6de6603)" style="fill: none; stroke: #d9d9d9; stroke-opacity: 0.85; stroke-width: 0.6; stroke-linecap: square"/>
     </g>
     <g id="line2d_37">
      <g>
       <use xlink:href="#mab15fd94c4" x="529.236791" y="102.955839" style="stroke: #000000; stroke-width: 1.1"/>
      </g>
     </g>
     <g id="text_30">
      <text style="font-size: 11px; font-family: 'Arial', 'Helvetica', 'DejaVu Sans', sans-serif; text-anchor: end" x="522.236791" y="107.13498" transform="rotate(-0 522.236791 107.13498)">0.8</text>
     </g>
    </g>
    <g id="ytick_12">
     <g id="line2d_38">
      <path d="M 529.236791 54.387888 
L 919.918235 54.387888 
" clip-path="url(#pf8d6de6603)" style="fill: none; stroke: #d9d9d9; stroke-opacity: 0.85; stroke-width: 0.6; stroke-linecap: square"/>
     </g>
     <g id="line2d_39">
      <g>
       <use xlink:href="#mab15fd94c4" x="529.236791" y="54.387888" style="stroke: #000000; stroke-width: 1.1"/>
      </g>
     </g>
     <g id="text_31">
      <text style="font-size: 11px; font-family: 'Arial', 'Helvetica', 'DejaVu Sans', sans-serif; text-anchor: end" x="522.236791" y="58.567028" transform="rotate(-0 522.236791 58.567028)">1.0</text>
     </g>
    </g>
    <g id="text_32">
     <text style="font-size: 11px; font-family: 'Arial', 'Helvetica', 'DejaVu Sans', sans-serif; text-anchor: middle" x="498.455697" y="170.950971" transform="rotate(-90 498.455697 170.950971)">Patient coverage</text>
    </g>
   </g>
   <g id="FillBetweenPolyCollection_2">
    <defs>
     <path id="m66ee4dc4f9" d="M 546.995038 -40.007412 
L 546.995038 -40.007412 
L 558.83387 -48.381197 
L 570.672702 -81.876336 
L 582.511533 -98.623905 
L 594.350365 -98.623905 
L 606.189197 -123.745259 
L 618.028028 -132.119044 
L 629.86686 -140.492829 
L 641.705692 -140.492829 
L 653.544523 -157.240398 
L 665.383355 -165.614183 
L 677.222186 -190.735537 
L 689.061018 -190.735537 
L 700.89985 -199.109322 
L 712.738681 -215.856891 
L 724.577513 -215.856891 
L 736.416345 -215.856891 
L 748.255176 -215.856891 
L 760.094008 -215.856891 
L 771.93284 -215.856891 
L 783.771671 -215.856891 
L 795.610503 -215.856891 
L 807.449334 -224.230676 
L 819.288166 -232.604461 
L 831.126998 -232.604461 
L 842.965829 -232.604461 
L 854.804661 -232.604461 
L 866.643493 -240.978245 
L 878.482324 -249.35203 
L 890.321156 -249.35203 
L 902.159988 -274.473384 
L 902.159988 -40.007412 
L 902.159988 -40.007412 
L 890.321156 -40.007412 
L 878.482324 -40.007412 
L 866.643493 -40.007412 
L 854.804661 -40.007412 
L 842.965829 -40.007412 
L 831.126998 -40.007412 
L 819.288166 -40.007412 
L 807.449334 -40.007412 
L 795.610503 -40.007412 
L 783.771671 -40.007412 
L 771.93284 -40.007412 
L 760.094008 -40.007412 
L 748.255176 -40.007412 
L 736.416345 -40.007412 
L 724.577513 -40.007412 
L 712.738681 -40.007412 
L 700.89985 -40.007412 
L 689.061018 -40.007412 
L 677.222186 -40.007412 
L 665.383355 -40.007412 
L 653.544523 -40.007412 
L 641.705692 -40.007412 
L 629.86686 -40.007412 
L 618.028028 -40.007412 
L 606.189197 -40.007412 
L 594.350365 -40.007412 
L 582.511533 -40.007412 
L 570.672702 -40.007412 
L 558.83387 -40.007412 
L 546.995038 -40.007412 
z
" style="stroke: #42949e; stroke-opacity: 0.16"/>
    </defs>
    <g clip-path="url(#pf8d6de6603)">
     <use xlink:href="#m66ee4dc4f9" x="0" y="337.235057" style="fill: #42949e; fill-opacity: 0.16; stroke: #42949e; stroke-opacity: 0.16"/>
    </g>
   </g>
   <g id="line2d_40">
    <path d="M 546.995038 297.227645 
L 558.83387 288.85386 
L 570.672702 255.358721 
L 582.511533 238.611152 
L 594.350365 238.611152 
L 606.189197 213.489798 
L 618.028028 205.116013 
L 629.86686 196.742228 
L 641.705692 196.742228 
L 653.544523 179.994659 
L 665.383355 171.620874 
L 677.222186 146.49952 
L 689.061018 146.49952 
L 700.89985 138.125735 
L 712.738681 121.378166 
L 724.577513 121.378166 
L 736.416345 121.378166 
L 748.255176 121.378166 
L 760.094008 121.378166 
L 771.93284 121.378166 
L 783.771671 121.378166 
L 795.610503 121.378166 
L 807.449334 113.004381 
L 819.288166 104.630596 
L 831.126998 104.630596 
L 842.965829 104.630596 
L 854.804661 104.630596 
L 866.643493 96.256811 
L 878.482324 87.883027 
L 890.321156 87.883027 
L 902.159988 62.761673 
" clip-path="url(#pf8d6de6603)" style="fill: none; stroke: #42949e; stroke-width: 2.4; stroke-linecap: square"/>
   </g>
   <g id="line2d_41">
    <path d="M 665.383355 297.227645 
L 665.383355 44.674298 
" clip-path="url(#pf8d6de6603)" style="fill: none; stroke-dasharray: 4.995,2.16; stroke-dashoffset: 0; stroke: #b64342; stroke-width: 1.35"/>
   </g>
   <g id="patch_6">
    <path d="M 529.236791 297.227645 
L 529.236791 44.674298 
" style="fill: none; stroke: #000000; stroke-width: 1.6; stroke-linejoin: miter; stroke-linecap: square"/>
   </g>
   <g id="patch_7">
    <path d="M 529.236791 297.227645 
L 919.918235 297.227645 
" style="fill: none; stroke: #000000; stroke-width: 1.6; stroke-linejoin: miter; stroke-linecap: square"/>
   </g>
   <g id="text_33">
    <text style="font-weight: 700; font-size: 9px; font-family: 'Arial', 'Helvetica', 'DejaVu Sans', sans-serif; text-anchor: start" x="673.383355" y="195.620874" transform="rotate(-0 673.383355 195.620874)">15/29 (51.7%)</text>
   </g>
   <g id="text_34">
    <text style="font-weight: 700; font-size: 15px; font-family: 'Arial', 'Helvetica', 'DejaVu Sans', sans-serif; text-anchor: start" x="466.72776" y="35.867686" transform="rotate(-0 466.72776 35.867686)">B</text>
   </g>
   <g id="text_35">
    <text style="font-weight: 700; font-size: 12px; font-family: 'Arial', 'Helvetica', 'DejaVu Sans', sans-serif; text-anchor: middle" x="724.577513" y="38.674298" transform="rotate(-0 724.577513 38.674298)">Barthel Index</text>
   </g>
   <g id="PathCollection_2">
    <g clip-path="url(#pf8d6de6603)">
     <use xlink:href="#m21aa983dbd" x="665.383355" y="171.620874" style="fill: #d89b22; stroke: #000000"/>
    </g>
   </g>
  </g>
  <g id="text_36">
   <text style="font-weight: 700; font-size: 14.5px; font-family: 'Arial', 'Helvetica', 'DejaVu Sans', sans-serif; text-anchor: start" x="19.750475" y="15.337734" transform="rotate(-0 19.750475 15.337734)">Clinical tolerance coverage across sensitivity thresholds</text>
  </g>
  <g id="text_37">
   <text style="font-size: 8.7px; font-family: 'Arial', 'Helvetica', 'DejaVu Sans', sans-serif; text-anchor: start; fill: #767676" x="19.750475" y="330.86376" transform="rotate(-0 19.750475 330.86376)">Dashed lines denote the prespecified endpoints: FMA |error| ≤ 1.5 and BI |error| ≤ 10.</text>
  </g>
 </g>
 <defs>
  <clipPath id="p730922d79d">
   <rect x="66.829031" y="44.674298" width="390.681444" height="252.553347"/>
  </clipPath>
  <clipPath id="pf8d6de6603">
   <rect x="529.236791" y="44.674298" width="390.681444" height="252.553347"/>
  </clipPath>
 </defs>
</svg>
